<?xml version="1.0" encoding="utf-8"?>
<!-- Generator: Adobe Illustrator 21.0.0, SVG Export Plug-In . SVG Version: 6.00 Build 0)  -->
<svg version="1.1" id="Layer_1" xmlns="http://www.w3.org/2000/svg" xmlns:xlink="http://www.w3.org/1999/xlink" x="0px" y="0px"
	 viewBox="0 0 25.4 33.2" style="enable-background:new 0 0 25.4 33.2;" xml:space="preserve">
<style type="text/css">
	.st0{fill:#42A5D1;}
	.st1{fill:#352F29;stroke:#352F29;stroke-width:0.91;stroke-miterlimit:10;}
	.st2{fill:none;stroke:#352F29;stroke-width:0.82;stroke-miterlimit:10;}
	.st3{fill:none;stroke:#352F29;stroke-width:0.99;stroke-miterlimit:10;}
	.st4{fill:none;stroke:#E38CD3;stroke-width:0.36;stroke-miterlimit:10;}
	.st5{fill:none;stroke:#E38CD3;stroke-width:0.32;stroke-miterlimit:10;}
	.st6{fill:none;stroke:#42F8D1;stroke-width:0.36;stroke-miterlimit:10;}
	.st7{fill:none;stroke:#42F8D1;stroke-width:0.32;stroke-miterlimit:10;}
	.st8{fill:none;stroke:#E38CD3;stroke-width:0.27;stroke-miterlimit:10;}
	.st9{fill:none;stroke:#E38CD3;stroke-width:0.23;stroke-miterlimit:10;}
	.st10{fill:none;stroke:#42F8D1;stroke-width:0.27;stroke-miterlimit:10;}
	.st11{fill:none;stroke:#42F8D1;stroke-width:0.23;stroke-miterlimit:10;}
</style>
<title>login</title>
<ellipse class="st0" cx="12.8" cy="10.4" rx="8.9" ry="10.4"/>
<path class="st0" d="M8.8,19.7l0.1,2.5c0,0.2,0.1,0.4,0.2,0.6l2.8,3.1c0.4,0.4,0.9,0.4,1.3,0c0,0,0,0,0,0l3.1-3.1
	c0.2-0.2,0.3-0.4,0.3-0.6v-2.3c0-0.5-0.6-0.5-1-0.6H9.8C9.3,19.2,8.8,19.1,8.8,19.7z"/>
<path class="st0" d="M25.4,30c0,4.3-25.4,4.3-25.4,0c0-3.1,2.3-5.6,6.6-6.9c1.6-0.5,4,4.9,5.9,4.9c2.2,0,4.5-5.5,6.3-4.9
	C22.7,24.5,25.4,27,25.4,30z"/>
<path class="st1" d="M11.5,8.9c0,1.6-3.2,3.1-5.2,3.1s-2.2-1.6-2.2-3.1s1.7-2.9,3.7-2.9S11.5,7.4,11.5,8.9z"/>
<path class="st1" d="M14.2,8.9c0,1.6,3.1,3.1,5.2,3.1s2.2-1.6,2.2-3.1s-1.7-2.8-3.7-2.8S14.2,7.4,14.2,8.9z"/>
<path class="st2" d="M11.5,7.8c0,0,1.2,0,2.8,0"/>
<path class="st3" d="M9.7,6.5c0,0,2.8-0.1,6.2-0.1"/>
<path class="st4" d="M2.9,28.9c0,0-2.6-0.8-1.3-1.5S2.9,28.9,2.9,28.9z"/>
<path class="st5" d="M3.1,28.9c0,0,0-2.1,1-1.5S3.1,28.9,3.1,28.9z"/>
<path class="st5" d="M3,28.9c0,0,2.1,0.2,1.4,1.1C3.7,30.9,3,28.9,3,28.9z"/>
<path class="st4" d="M2.8,28.7c0,0,0.1,2.6-1,1.7S2.8,28.7,2.8,28.7z"/>
<path class="st6" d="M9.4,30.3c0,0-1-2.5,0.3-2S9.4,30.3,9.4,30.3z"/>
<path class="st7" d="M9.5,30.5c0,0,1.6-1.3,1.8-0.2S9.5,30.5,9.5,30.5z"/>
<path class="st7" d="M9.5,30.4c0,0,1.1,1.8,0,1.8S9.5,30.4,9.5,30.4z"/>
<path class="st6" d="M9.5,30.2c0,0-2,1.7-1.9,0.3S9.5,30.2,9.5,30.2z"/>
<path class="st6" d="M18.9,26.3c0,0,2.3-1.4,2-0.1C20.7,27.6,18.9,26.3,18.9,26.3z"/>
<path class="st7" d="M18.8,26.5c0,0,1.6,1.4,0.5,1.7S18.8,26.5,18.8,26.5z"/>
<path class="st7" d="M18.9,26.4c0,0-1.5,1.4-1.8,0.3S18.9,26.4,18.9,26.4z"/>
<path class="st6" d="M19.1,26.4c0,0-2-1.6-0.7-1.9S19.1,26.4,19.1,26.4z"/>
<path class="st8" d="M22.6,29.6c0,0,1.7-1.1,1.5-0.1S22.6,29.6,22.6,29.6z"/>
<path class="st9" d="M22.5,29.8c0,0,1.2,1,0.4,1.3S22.5,29.8,22.5,29.8z"/>
<path class="st9" d="M22.5,29.7c0,0-1.1,1.1-1.3,0.2S22.5,29.7,22.5,29.7z"/>
<path class="st8" d="M22.7,29.7c0,0-1.5-1.2-0.5-1.4S22.7,29.7,22.7,29.7z"/>
<path class="st8" d="M15.2,29.7c0,0,2,0.2,1.2,0.8C15.6,31.3,15.2,29.7,15.2,29.7z"/>
<path class="st9" d="M15,29.8c0,0,0.3,1.5-0.5,1.2S15,29.8,15,29.8z"/>
<path class="st9" d="M15.1,29.8c0,0-1.5,0.2-1.2-0.6C14.3,28.4,15.1,29.8,15.1,29.8z"/>
<path class="st8" d="M15.2,29.9c0,0-0.5-1.9,0.4-1.4C16.5,28.9,15.2,29.9,15.2,29.9z"/>
<path class="st10" d="M6.6,26.3c0,0,2,0.4,1.1,1S6.6,26.3,6.6,26.3z"/>
<path class="st11" d="M6.4,26.3c0,0,0.1,1.5-0.6,1.2S6.4,26.3,6.4,26.3z"/>
<path class="st11" d="M6.6,26.3c0,0-1.6,0-1.1-0.7C5.9,24.8,6.6,26.3,6.6,26.3z"/>
<path class="st10" d="M6.7,26.4c0,0-0.2-1.9,0.6-1.4S6.7,26.4,6.7,26.4z"/>
</svg>
